<svg width="1761" height="825" viewBox="0 0 1761 825" fill="none" xmlns="http://www.w3.org/2000/svg">
<path fill-rule="evenodd" clip-rule="evenodd" d="M448.523 1.55467C256.365 18.9674 105.81 180.497 105.81 377.191C105.81 585.508 274.684 754.382 483.001 754.382C594.098 754.382 693.976 706.352 763.004 629.923C690.229 746.988 560.446 824.922 412.461 824.922C184.665 824.922 0 640.257 0 412.461C0 184.665 184.665 0 412.461 0C424.611 0 436.639 0.525383 448.523 1.55467Z" fill="#00A8E8"/>
<circle cx="483" cy="372.922" r="338" fill="#007EA7"/>
<g clip-path="url(#clip0_1018_2454)">
<path d="M626.121 509.02C625.872 509.61 625.542 510.158 625.153 510.631C624.765 511.104 624.325 511.49 623.863 511.765C621.884 513.036 620.016 512.229 619.585 509.917L610.644 461.944L569.644 488.341C567.665 489.612 565.797 488.805 565.366 486.493C564.935 484.181 566.135 481.404 568.114 480.134L612.658 451.654C614.637 450.383 616.505 451.19 616.936 453.502L626.572 505.495C626.787 506.651 626.585 507.945 626.121 509.02Z" fill="white"/>
<path d="M608.515 466.123C608.515 465.032 608.754 464.613 609.277 463.723C609.758 462.905 611.309 461.978 609.544 463.037" stroke="#FFFEFE" stroke-width="3" stroke-linecap="round"/>
<path d="M594.113 469.21C595.981 469.21 597.73 468.867 599.6 468.867" stroke="#FFFEFE" stroke-width="3" stroke-linecap="round"/>
</g>
<path d="M611.034 366.539C611.034 352.873 484.952 169.922 484.952 169.922L389.289 321.573" stroke="#FFFEFE" stroke-width="20"/>
<path d="M609.784 462.999C603.273 482.476 592.17 500.101 577.415 514.385C562.659 528.669 544.683 539.192 525.005 545.068C505.326 550.943 484.523 551.997 464.352 548.142C444.18 544.286 425.232 535.633 409.108 522.914C392.984 510.195 380.157 493.783 371.71 475.064C363.263 456.345 359.444 435.868 360.575 415.362C361.707 394.856 367.755 374.924 378.211 357.248" stroke="#FFFEFE" stroke-width="20"/>
<path d="M610.704 364.824C612.424 371.13 611.277 428.571 611.277 428.571" stroke="#FFFEFE" stroke-width="20"/>
<path d="M379.133 274.103C379.458 273.552 379.858 273.052 380.306 272.635C380.755 272.218 381.242 271.894 381.736 271.683C383.867 270.687 385.61 271.735 385.73 274.084L388.211 322.82L432.358 302.111C434.488 301.114 436.232 302.162 436.352 304.511C436.471 306.86 434.913 309.452 432.783 310.449L384.846 332.75C382.716 333.746 380.972 332.698 380.852 330.35L378.218 277.537C378.158 276.363 378.53 275.107 379.133 274.103Z" fill="white"/>
<path d="M973.6 397C972.6 397 971.9 396.55 971.5 395.65L953.8 355.75C953.6 355.35 953.3 355.15 952.9 355.15H943C942.5 355.15 942.25 355.4 942.25 355.9V395.2C942.25 395.7 942.05 396.15 941.65 396.55C941.35 396.85 940.95 397 940.45 397H919.15C918.65 397 918.2 396.85 917.8 396.55C917.5 396.15 917.35 395.7 917.35 395.2V293.8C917.35 293.3 917.5 292.9 917.8 292.6C918.2 292.2 918.65 292 919.15 292H963.7C970.3 292 976.1 293.35 981.1 296.05C986.1 298.75 989.95 302.6 992.65 307.6C995.45 312.5 996.85 318.15 996.85 324.55C996.85 331.25 995.2 337.05 991.9 341.95C988.6 346.85 984 350.4 978.1 352.6C977.6 352.8 977.45 353.15 977.65 353.65L997.45 394.9C997.65 395.3 997.75 395.6 997.75 395.8C997.75 396.6 997.2 397 996.1 397H973.6ZM943 313.3C942.5 313.3 942.25 313.55 942.25 314.05V335.35C942.25 335.85 942.5 336.1 943 336.1H959.65C963.35 336.1 966.35 335.1 968.65 333.1C970.95 331 972.1 328.25 972.1 324.85C972.1 321.35 970.95 318.55 968.65 316.45C966.35 314.35 963.35 313.3 959.65 313.3H943ZM1084.04 311.5C1084.04 312 1083.84 312.45 1083.44 312.85C1083.14 313.15 1082.74 313.3 1082.24 313.3H1035.14C1034.64 313.3 1034.39 313.55 1034.39 314.05V332.5C1034.39 333 1034.64 333.25 1035.14 333.25H1065.29C1065.79 333.25 1066.19 333.45 1066.49 333.85C1066.89 334.15 1067.09 334.55 1067.09 335.05V352.6C1067.09 353.1 1066.89 353.55 1066.49 353.95C1066.19 354.25 1065.79 354.4 1065.29 354.4H1035.14C1034.64 354.4 1034.39 354.65 1034.39 355.15V374.95C1034.39 375.45 1034.64 375.7 1035.14 375.7H1082.24C1082.74 375.7 1083.14 375.9 1083.44 376.3C1083.84 376.6 1084.04 377 1084.04 377.5V395.2C1084.04 395.7 1083.84 396.15 1083.44 396.55C1083.14 396.85 1082.74 397 1082.24 397H1011.29C1010.79 397 1010.34 396.85 1009.94 396.55C1009.64 396.15 1009.49 395.7 1009.49 395.2V293.8C1009.49 293.3 1009.64 292.9 1009.94 292.6C1010.34 292.2 1010.79 292 1011.29 292H1082.24C1082.74 292 1083.14 292.2 1083.44 292.6C1083.84 292.9 1084.04 293.3 1084.04 293.8V311.5ZM1170.46 311.5C1170.46 312 1170.26 312.45 1169.86 312.85C1169.56 313.15 1169.16 313.3 1168.66 313.3H1121.71C1121.21 313.3 1120.96 313.55 1120.96 314.05V332.5C1120.96 333 1121.21 333.25 1121.71 333.25H1151.86C1152.36 333.25 1152.76 333.45 1153.06 333.85C1153.46 334.15 1153.66 334.55 1153.66 335.05V352.6C1153.66 353.1 1153.46 353.55 1153.06 353.95C1152.76 354.25 1152.36 354.4 1151.86 354.4H1121.71C1121.21 354.4 1120.96 354.65 1120.96 355.15V395.2C1120.96 395.7 1120.76 396.15 1120.36 396.55C1120.06 396.85 1119.66 397 1119.16 397H1097.86C1097.36 397 1096.91 396.85 1096.51 396.55C1096.21 396.15 1096.06 395.7 1096.06 395.2V293.8C1096.06 293.3 1096.21 292.9 1096.51 292.6C1096.91 292.2 1097.36 292 1097.86 292H1168.66C1169.16 292 1169.56 292.2 1169.86 292.6C1170.26 292.9 1170.46 293.3 1170.46 293.8V311.5ZM1181.36 397C1180.86 397 1180.41 396.85 1180.01 396.55C1179.71 396.15 1179.56 395.7 1179.56 395.2V293.8C1179.56 293.3 1179.71 292.9 1180.01 292.6C1180.41 292.2 1180.86 292 1181.36 292H1202.66C1203.16 292 1203.56 292.2 1203.86 292.6C1204.26 292.9 1204.46 293.3 1204.46 293.8V395.2C1204.46 395.7 1204.26 396.15 1203.86 396.55C1203.56 396.85 1203.16 397 1202.66 397H1181.36ZM1221.05 397C1220.55 397 1220.1 396.85 1219.7 396.55C1219.4 396.15 1219.25 395.7 1219.25 395.2V293.8C1219.25 293.3 1219.4 292.9 1219.7 292.6C1220.1 292.2 1220.55 292 1221.05 292H1242.35C1242.85 292 1243.25 292.2 1243.55 292.6C1243.95 292.9 1244.15 293.3 1244.15 293.8V374.95C1244.15 375.45 1244.4 375.7 1244.9 375.7H1292.75C1293.25 375.7 1293.65 375.9 1293.95 376.3C1294.35 376.6 1294.55 377 1294.55 377.5V395.2C1294.55 395.7 1294.35 396.15 1293.95 396.55C1293.65 396.85 1293.25 397 1292.75 397H1221.05ZM1307.04 397C1306.54 397 1306.09 396.85 1305.69 396.55C1305.39 396.15 1305.24 395.7 1305.24 395.2V293.8C1305.24 293.3 1305.39 292.9 1305.69 292.6C1306.09 292.2 1306.54 292 1307.04 292H1328.34C1328.84 292 1329.24 292.2 1329.54 292.6C1329.94 292.9 1330.14 293.3 1330.14 293.8V395.2C1330.14 395.7 1329.94 396.15 1329.54 396.55C1329.24 396.85 1328.84 397 1328.34 397H1307.04ZM1404.49 293.8C1404.49 293.3 1404.64 292.9 1404.94 292.6C1405.34 292.2 1405.79 292 1406.29 292H1427.59C1428.09 292 1428.49 292.2 1428.79 292.6C1429.19 292.9 1429.39 293.3 1429.39 293.8V395.2C1429.39 395.7 1429.19 396.15 1428.79 396.55C1428.49 396.85 1428.09 397 1427.59 397H1407.19C1406.19 397 1405.49 396.6 1405.09 395.8L1370.59 338.5C1370.39 338.2 1370.19 338.1 1369.99 338.2C1369.79 338.2 1369.69 338.4 1369.69 338.8L1369.84 395.2C1369.84 395.7 1369.64 396.15 1369.24 396.55C1368.94 396.85 1368.54 397 1368.04 397H1346.74C1346.24 397 1345.79 396.85 1345.39 396.55C1345.09 396.15 1344.94 395.7 1344.94 395.2V293.8C1344.94 293.3 1345.09 292.9 1345.39 292.6C1345.79 292.2 1346.24 292 1346.74 292H1367.29C1368.29 292 1368.99 292.4 1369.39 293.2L1403.74 350.35C1403.94 350.65 1404.14 350.8 1404.34 350.8C1404.54 350.7 1404.64 350.45 1404.64 350.05L1404.49 293.8Z" fill="white"/>
<path d="M914.25 488C914.083 488 913.933 487.95 913.8 487.85C913.7 487.717 913.65 487.567 913.65 487.4V453.6C913.65 453.433 913.7 453.3 913.8 453.2C913.933 453.067 914.083 453 914.25 453H918.85C919.017 453 919.15 453.067 919.25 453.2C919.383 453.3 919.45 453.433 919.45 453.6V487.4C919.45 487.567 919.383 487.717 919.25 487.85C919.15 487.95 919.017 488 918.85 488H914.25ZM935.686 488.3C933.586 488.3 931.736 488 930.136 487.4C928.569 486.767 927.353 485.917 926.486 484.85C925.619 483.75 925.186 482.533 925.186 481.2V480.75C925.186 480.583 925.236 480.45 925.336 480.35C925.469 480.217 925.619 480.15 925.786 480.15H930.186C930.353 480.15 930.486 480.217 930.586 480.35C930.719 480.45 930.786 480.583 930.786 480.75V480.85C930.786 481.683 931.236 482.417 932.136 483.05C933.069 483.65 934.236 483.95 935.636 483.95C936.969 483.95 938.053 483.683 938.886 483.15C939.719 482.583 940.136 481.883 940.136 481.05C940.136 480.283 939.786 479.717 939.086 479.35C938.419 478.95 937.319 478.533 935.786 478.1L933.886 477.5C932.186 477 930.753 476.467 929.586 475.9C928.419 475.333 927.436 474.567 926.636 473.6C925.836 472.6 925.436 471.333 925.436 469.8C925.436 467.467 926.353 465.617 928.186 464.25C930.019 462.85 932.436 462.15 935.436 462.15C937.469 462.15 939.253 462.483 940.786 463.15C942.319 463.783 943.503 464.683 944.336 465.85C945.169 466.983 945.586 468.283 945.586 469.75C945.586 469.917 945.519 470.067 945.386 470.2C945.286 470.3 945.153 470.35 944.986 470.35H940.736C940.569 470.35 940.419 470.3 940.286 470.2C940.186 470.067 940.136 469.917 940.136 469.75C940.136 468.883 939.703 468.167 938.836 467.6C938.003 467 936.853 466.7 935.386 466.7C934.086 466.7 933.019 466.95 932.186 467.45C931.386 467.917 930.986 468.583 930.986 469.45C930.986 470.25 931.369 470.867 932.136 471.3C932.936 471.7 934.253 472.15 936.086 472.65L937.186 472.95C938.953 473.483 940.436 474.033 941.636 474.6C942.836 475.133 943.853 475.9 944.686 476.9C945.519 477.867 945.936 479.133 945.936 480.7C945.936 483.067 945.003 484.933 943.136 486.3C941.269 487.633 938.786 488.3 935.686 488.3ZM954.144 458.95C953.111 458.95 952.261 458.617 951.594 457.95C950.927 457.283 950.594 456.433 950.594 455.4C950.594 454.367 950.927 453.517 951.594 452.85C952.261 452.183 953.111 451.85 954.144 451.85C955.177 451.85 956.027 452.183 956.694 452.85C957.361 453.517 957.694 454.367 957.694 455.4C957.694 456.433 957.361 457.283 956.694 457.95C956.027 458.617 955.177 458.95 954.144 458.95ZM951.744 488C951.577 488 951.427 487.95 951.294 487.85C951.194 487.717 951.144 487.567 951.144 487.4V463C951.144 462.833 951.194 462.7 951.294 462.6C951.427 462.467 951.577 462.4 951.744 462.4H956.344C956.511 462.4 956.644 462.467 956.744 462.6C956.877 462.7 956.944 462.833 956.944 463V487.4C956.944 487.567 956.877 487.717 956.744 487.85C956.644 487.95 956.511 488 956.344 488H951.744ZM986.398 488.4C983.931 488.4 981.748 487.917 979.848 486.95C977.948 485.983 976.465 484.617 975.398 482.85C974.365 481.05 973.848 478.983 973.848 476.65V453.6C973.848 453.433 973.898 453.3 973.998 453.2C974.131 453.067 974.281 453 974.448 453H979.048C979.215 453 979.348 453.067 979.448 453.2C979.581 453.3 979.648 453.433 979.648 453.6V476.75C979.648 478.717 980.265 480.317 981.498 481.55C982.731 482.783 984.365 483.4 986.398 483.4C988.431 483.4 990.065 482.783 991.298 481.55C992.531 480.317 993.148 478.717 993.148 476.75V453.6C993.148 453.433 993.198 453.3 993.298 453.2C993.431 453.067 993.581 453 993.748 453H998.348C998.515 453 998.648 453.067 998.748 453.2C998.881 453.3 998.948 453.433 998.948 453.6V476.65C998.948 478.983 998.431 481.05 997.398 482.85C996.365 484.617 994.898 485.983 992.998 486.95C991.098 487.917 988.898 488.4 986.398 488.4ZM1005.99 488C1005.82 488 1005.67 487.95 1005.54 487.85C1005.44 487.717 1005.39 487.567 1005.39 487.4V453.6C1005.39 453.433 1005.44 453.3 1005.54 453.2C1005.67 453.067 1005.82 453 1005.99 453H1010.59C1010.75 453 1010.89 453.067 1010.99 453.2C1011.12 453.3 1011.19 453.433 1011.19 453.6V487.4C1011.19 487.567 1011.12 487.717 1010.99 487.85C1010.89 487.95 1010.75 488 1010.59 488H1005.99ZM1027.1 462.05C1029.2 462.05 1031.05 462.417 1032.65 463.15C1034.25 463.883 1035.48 464.9 1036.35 466.2C1037.21 467.467 1037.65 468.917 1037.65 470.55V487.4C1037.65 487.567 1037.58 487.717 1037.45 487.85C1037.35 487.95 1037.21 488 1037.05 488H1032.45C1032.28 488 1032.13 487.95 1032 487.85C1031.9 487.717 1031.85 487.567 1031.85 487.4V485.8C1031.85 485.7 1031.81 485.65 1031.75 485.65C1031.68 485.617 1031.61 485.633 1031.55 485.7C1029.91 487.5 1027.55 488.4 1024.45 488.4C1021.95 488.4 1019.88 487.767 1018.25 486.5C1016.65 485.233 1015.85 483.35 1015.85 480.85C1015.85 478.25 1016.75 476.233 1018.55 474.8C1020.38 473.333 1022.95 472.6 1026.25 472.6H1031.6C1031.76 472.6 1031.85 472.517 1031.85 472.35V471.15C1031.85 469.85 1031.46 468.85 1030.7 468.15C1029.93 467.417 1028.78 467.05 1027.25 467.05C1025.98 467.05 1024.95 467.283 1024.15 467.75C1023.38 468.183 1022.9 468.8 1022.7 469.6C1022.6 470 1022.36 470.167 1022 470.1L1017.15 469.5C1016.98 469.467 1016.83 469.417 1016.7 469.35C1016.6 469.25 1016.56 469.133 1016.6 469C1016.86 466.967 1017.95 465.3 1019.85 464C1021.78 462.7 1024.2 462.05 1027.1 462.05ZM1025.9 483.8C1027.53 483.8 1028.93 483.367 1030.1 482.5C1031.26 481.633 1031.85 480.533 1031.85 479.2V476.85C1031.85 476.683 1031.76 476.6 1031.6 476.6H1027.4C1025.63 476.6 1024.23 476.933 1023.2 477.6C1022.2 478.267 1021.7 479.217 1021.7 480.45C1021.7 481.517 1022.08 482.35 1022.85 482.95C1023.65 483.517 1024.66 483.8 1025.9 483.8ZM1055.72 462.05C1058.42 462.05 1060.57 462.85 1062.17 464.45C1063.8 466.05 1064.62 468.233 1064.62 471V487.4C1064.62 487.567 1064.55 487.717 1064.42 487.85C1064.32 487.95 1064.19 488 1064.02 488H1059.42C1059.25 488 1059.1 487.95 1058.97 487.85C1058.87 487.717 1058.82 487.567 1058.82 487.4V472.2C1058.82 470.667 1058.39 469.433 1057.52 468.5C1056.65 467.533 1055.5 467.05 1054.07 467.05C1052.64 467.05 1051.47 467.517 1050.57 468.45C1049.7 469.383 1049.27 470.617 1049.27 472.15V487.4C1049.27 487.567 1049.2 487.717 1049.07 487.85C1048.97 487.95 1048.84 488 1048.67 488H1044.07C1043.9 488 1043.75 487.95 1043.62 487.85C1043.52 487.717 1043.47 487.567 1043.47 487.4V463.05C1043.47 462.883 1043.52 462.75 1043.62 462.65C1043.75 462.517 1043.9 462.45 1044.07 462.45H1048.67C1048.84 462.45 1048.97 462.517 1049.07 462.65C1049.2 462.75 1049.27 462.883 1049.27 463.05V464.65C1049.27 464.75 1049.3 464.817 1049.37 464.85C1049.44 464.883 1049.49 464.85 1049.52 464.75C1050.89 462.95 1052.95 462.05 1055.72 462.05ZM1086.32 463.05C1086.32 462.883 1086.37 462.75 1086.47 462.65C1086.6 462.517 1086.75 462.45 1086.92 462.45H1091.52C1091.69 462.45 1091.82 462.517 1091.92 462.65C1092.05 462.75 1092.12 462.883 1092.12 463.05V486.3C1092.12 490.467 1090.92 493.433 1088.52 495.2C1086.15 497 1083.04 497.9 1079.17 497.9C1078.14 497.9 1077.12 497.85 1076.12 497.75C1075.75 497.717 1075.57 497.5 1075.57 497.1L1075.72 493C1075.72 492.633 1075.95 492.45 1076.42 492.45C1077.39 492.55 1078.25 492.6 1079.02 492.6C1081.52 492.6 1083.35 492.1 1084.52 491.1C1085.72 490.133 1086.32 488.483 1086.32 486.15V485.75C1086.32 485.65 1086.29 485.6 1086.22 485.6C1086.15 485.567 1086.09 485.583 1086.02 485.65C1084.65 487.117 1082.72 487.85 1080.22 487.85C1078.05 487.85 1076.07 487.3 1074.27 486.2C1072.47 485.1 1071.22 483.417 1070.52 481.15C1070.09 479.583 1069.87 477.567 1069.87 475.1C1069.87 472.333 1070.14 470.217 1070.67 468.75C1071.34 466.717 1072.49 465.1 1074.12 463.9C1075.75 462.667 1077.67 462.05 1079.87 462.05C1082.5 462.05 1084.55 462.817 1086.02 464.35C1086.09 464.45 1086.15 464.483 1086.22 464.45C1086.29 464.417 1086.32 464.35 1086.32 464.25V463.05ZM1085.97 479.5C1086.1 479 1086.19 478.467 1086.22 477.9C1086.29 477.3 1086.32 476.35 1086.32 475.05C1086.32 473.783 1086.29 472.883 1086.22 472.35C1086.19 471.783 1086.09 471.233 1085.92 470.7C1085.65 469.6 1085.1 468.717 1084.27 468.05C1083.47 467.383 1082.44 467.05 1081.17 467.05C1079.97 467.05 1078.95 467.383 1078.12 468.05C1077.29 468.717 1076.69 469.6 1076.32 470.7C1075.92 471.633 1075.72 473.1 1075.72 475.1C1075.72 477.167 1075.89 478.617 1076.22 479.45C1076.55 480.517 1077.15 481.4 1078.02 482.1C1078.92 482.767 1079.99 483.1 1081.22 483.1C1082.52 483.1 1083.57 482.767 1084.37 482.1C1085.17 481.433 1085.7 480.567 1085.97 479.5ZM1128.22 469.75C1128.02 469.85 1128.02 469.95 1128.22 470.05C1131.62 471.65 1133.32 474.4 1133.32 478.3C1133.32 481.467 1132.25 483.883 1130.12 485.55C1128.02 487.183 1125.27 488 1121.87 488H1109.27C1109.1 488 1108.95 487.95 1108.82 487.85C1108.72 487.717 1108.67 487.567 1108.67 487.4V453.6C1108.67 453.433 1108.72 453.3 1108.82 453.2C1108.95 453.067 1109.1 453 1109.27 453H1121.47C1125.1 453 1127.9 453.783 1129.87 455.35C1131.84 456.917 1132.82 459.283 1132.82 462.45C1132.82 465.95 1131.29 468.383 1128.22 469.75ZM1114.72 458C1114.55 458 1114.47 458.083 1114.47 458.25V467.5C1114.47 467.667 1114.55 467.75 1114.72 467.75H1121.47C1123.24 467.75 1124.62 467.333 1125.62 466.5C1126.65 465.633 1127.17 464.45 1127.17 462.95C1127.17 461.417 1126.65 460.217 1125.62 459.35C1124.62 458.45 1123.24 458 1121.47 458H1114.72ZM1121.87 482.95C1123.6 482.95 1124.97 482.483 1125.97 481.55C1127 480.617 1127.52 479.35 1127.52 477.75C1127.52 476.117 1127 474.85 1125.97 473.95C1124.94 473.017 1123.54 472.55 1121.77 472.55H1114.72C1114.55 472.55 1114.47 472.633 1114.47 472.8V482.7C1114.47 482.867 1114.55 482.95 1114.72 482.95H1121.87ZM1160.77 472.35C1160.91 473.183 1160.97 474.117 1160.97 475.15L1160.92 476.7C1160.92 477.1 1160.72 477.3 1160.32 477.3H1144.67C1144.51 477.3 1144.42 477.383 1144.42 477.55C1144.52 478.65 1144.67 479.4 1144.87 479.8C1145.67 482.2 1147.62 483.417 1150.72 483.45C1152.99 483.45 1154.79 482.517 1156.12 480.65C1156.26 480.45 1156.42 480.35 1156.62 480.35C1156.76 480.35 1156.87 480.4 1156.97 480.5L1160.07 483.05C1160.37 483.283 1160.42 483.55 1160.22 483.85C1159.19 485.317 1157.81 486.45 1156.07 487.25C1154.37 488.05 1152.47 488.45 1150.37 488.45C1147.77 488.45 1145.56 487.867 1143.72 486.7C1141.92 485.533 1140.61 483.9 1139.77 481.8C1139.01 480 1138.62 477.5 1138.62 474.3C1138.62 472.367 1138.82 470.8 1139.22 469.6C1139.89 467.267 1141.14 465.433 1142.97 464.1C1144.84 462.733 1147.07 462.05 1149.67 462.05C1156.24 462.05 1159.94 465.483 1160.77 472.35ZM1149.67 467.05C1148.44 467.05 1147.41 467.367 1146.57 468C1145.77 468.6 1145.21 469.45 1144.87 470.55C1144.67 471.117 1144.54 471.85 1144.47 472.75C1144.41 472.917 1144.47 473 1144.67 473H1154.82C1154.99 473 1155.07 472.917 1155.07 472.75C1155.01 471.917 1154.91 471.283 1154.77 470.85C1154.47 469.65 1153.87 468.717 1152.97 468.05C1152.11 467.383 1151.01 467.05 1149.67 467.05ZM1178.17 462.15C1179.24 462.15 1180.17 462.367 1180.97 462.8C1181.24 462.933 1181.34 463.183 1181.27 463.55L1180.42 468.05C1180.39 468.45 1180.16 468.567 1179.72 468.4C1179.22 468.233 1178.64 468.15 1177.97 468.15C1177.54 468.15 1177.21 468.167 1176.97 468.2C1175.57 468.267 1174.41 468.767 1173.47 469.7C1172.54 470.6 1172.07 471.783 1172.07 473.25V487.4C1172.07 487.567 1172.01 487.717 1171.87 487.85C1171.77 487.95 1171.64 488 1171.47 488H1166.87C1166.71 488 1166.56 487.95 1166.42 487.85C1166.32 487.717 1166.27 487.567 1166.27 487.4V463.05C1166.27 462.883 1166.32 462.75 1166.42 462.65C1166.56 462.517 1166.71 462.45 1166.87 462.45H1171.47C1171.64 462.45 1171.77 462.517 1171.87 462.65C1172.01 462.75 1172.07 462.883 1172.07 463.05V465.3C1172.07 465.433 1172.09 465.517 1172.12 465.55C1172.19 465.55 1172.26 465.5 1172.32 465.4C1173.72 463.233 1175.67 462.15 1178.17 462.15ZM1185.67 488C1185.51 488 1185.36 487.95 1185.22 487.85C1185.12 487.717 1185.07 487.567 1185.07 487.4V453.6C1185.07 453.433 1185.12 453.3 1185.22 453.2C1185.36 453.067 1185.51 453 1185.67 453H1190.27C1190.44 453 1190.57 453.067 1190.67 453.2C1190.81 453.3 1190.87 453.433 1190.87 453.6V471.65C1190.87 471.75 1190.91 471.817 1190.97 471.85C1191.04 471.883 1191.11 471.85 1191.17 471.75L1199.27 462.8C1199.51 462.567 1199.76 462.45 1200.02 462.45H1205.32C1205.66 462.45 1205.82 462.567 1205.82 462.8C1205.82 462.9 1205.77 463.033 1205.67 463.2L1199.32 470.8C1199.22 470.9 1199.21 471.017 1199.27 471.15L1206.77 487.3C1206.84 487.433 1206.87 487.533 1206.87 487.6C1206.87 487.867 1206.69 488 1206.32 488H1201.47C1201.14 488 1200.91 487.85 1200.77 487.55L1195.32 474.85C1195.29 474.783 1195.22 474.75 1195.12 474.75C1195.06 474.717 1195.01 474.733 1194.97 474.8L1190.97 479.4C1190.91 479.533 1190.87 479.65 1190.87 479.75V487.4C1190.87 487.567 1190.81 487.717 1190.67 487.85C1190.57 487.95 1190.44 488 1190.27 488H1185.67ZM1226.3 463.05C1226.3 462.883 1226.35 462.75 1226.45 462.65C1226.58 462.517 1226.73 462.45 1226.9 462.45H1231.45C1231.61 462.45 1231.75 462.517 1231.85 462.65C1231.98 462.75 1232.05 462.883 1232.05 463.05V487.4C1232.05 487.567 1231.98 487.717 1231.85 487.85C1231.75 487.95 1231.61 488 1231.45 488H1226.9C1226.73 488 1226.58 487.95 1226.45 487.85C1226.35 487.717 1226.3 487.567 1226.3 487.4V485.8C1226.3 485.7 1226.26 485.633 1226.2 485.6C1226.13 485.567 1226.06 485.6 1226 485.7C1224.63 487.467 1222.58 488.35 1219.85 488.35C1217.31 488.35 1215.18 487.617 1213.45 486.15C1211.75 484.683 1210.9 482.6 1210.9 479.9V463.05C1210.9 462.883 1210.95 462.75 1211.05 462.65C1211.18 462.517 1211.33 462.45 1211.5 462.45H1216.1C1216.26 462.45 1216.4 462.517 1216.5 462.65C1216.63 462.75 1216.7 462.883 1216.7 463.05V478.25C1216.7 479.817 1217.1 481.067 1217.9 482C1218.73 482.933 1219.88 483.4 1221.35 483.4C1222.85 483.4 1224.05 482.933 1224.95 482C1225.85 481.067 1226.3 479.817 1226.3 478.25V463.05ZM1248 462.05C1250.1 462.05 1251.95 462.417 1253.55 463.15C1255.15 463.883 1256.38 464.9 1257.25 466.2C1258.11 467.467 1258.55 468.917 1258.55 470.55V487.4C1258.55 487.567 1258.48 487.717 1258.35 487.85C1258.25 487.95 1258.11 488 1257.95 488H1253.35C1253.18 488 1253.03 487.95 1252.9 487.85C1252.8 487.717 1252.75 487.567 1252.75 487.4V485.8C1252.75 485.7 1252.71 485.65 1252.65 485.65C1252.58 485.617 1252.51 485.633 1252.45 485.7C1250.81 487.5 1248.45 488.4 1245.35 488.4C1242.85 488.4 1240.78 487.767 1239.15 486.5C1237.55 485.233 1236.75 483.35 1236.75 480.85C1236.75 478.25 1237.65 476.233 1239.45 474.8C1241.28 473.333 1243.85 472.6 1247.15 472.6H1252.5C1252.66 472.6 1252.75 472.517 1252.75 472.35V471.15C1252.75 469.85 1252.36 468.85 1251.6 468.15C1250.83 467.417 1249.68 467.05 1248.15 467.05C1246.88 467.05 1245.85 467.283 1245.05 467.75C1244.28 468.183 1243.8 468.8 1243.6 469.6C1243.5 470 1243.26 470.167 1242.9 470.1L1238.05 469.5C1237.88 469.467 1237.73 469.417 1237.6 469.35C1237.5 469.25 1237.46 469.133 1237.5 469C1237.76 466.967 1238.85 465.3 1240.75 464C1242.68 462.7 1245.1 462.05 1248 462.05ZM1246.8 483.8C1248.43 483.8 1249.83 483.367 1251 482.5C1252.16 481.633 1252.75 480.533 1252.75 479.2V476.85C1252.75 476.683 1252.66 476.6 1252.5 476.6H1248.3C1246.53 476.6 1245.13 476.933 1244.1 477.6C1243.1 478.267 1242.6 479.217 1242.6 480.45C1242.6 481.517 1242.98 482.35 1243.75 482.95C1244.55 483.517 1245.56 483.8 1246.8 483.8ZM1264.97 488C1264.8 488 1264.65 487.95 1264.52 487.85C1264.42 487.717 1264.37 487.567 1264.37 487.4V453.6C1264.37 453.433 1264.42 453.3 1264.52 453.2C1264.65 453.067 1264.8 453 1264.97 453H1269.57C1269.74 453 1269.87 453.067 1269.97 453.2C1270.1 453.3 1270.17 453.433 1270.17 453.6V487.4C1270.17 487.567 1270.1 487.717 1269.97 487.85C1269.87 487.95 1269.74 488 1269.57 488H1264.97ZM1279.63 458.95C1278.6 458.95 1277.75 458.617 1277.08 457.95C1276.42 457.283 1276.08 456.433 1276.08 455.4C1276.08 454.367 1276.42 453.517 1277.08 452.85C1277.75 452.183 1278.6 451.85 1279.63 451.85C1280.67 451.85 1281.52 452.183 1282.18 452.85C1282.85 453.517 1283.18 454.367 1283.18 455.4C1283.18 456.433 1282.85 457.283 1282.18 457.95C1281.52 458.617 1280.67 458.95 1279.63 458.95ZM1277.23 488C1277.07 488 1276.92 487.95 1276.78 487.85C1276.68 487.717 1276.63 487.567 1276.63 487.4V463C1276.63 462.833 1276.68 462.7 1276.78 462.6C1276.92 462.467 1277.07 462.4 1277.23 462.4H1281.83C1282 462.4 1282.13 462.467 1282.23 462.6C1282.37 462.7 1282.43 462.833 1282.43 463V487.4C1282.43 487.567 1282.37 487.717 1282.23 487.85C1282.13 487.95 1282 488 1281.83 488H1277.23ZM1302.63 466.55C1302.63 466.717 1302.56 466.867 1302.43 467C1302.33 467.1 1302.19 467.15 1302.03 467.15H1296.93C1296.76 467.15 1296.68 467.233 1296.68 467.4V479.45C1296.68 480.717 1296.94 481.633 1297.48 482.2C1298.04 482.767 1298.93 483.05 1300.13 483.05H1301.63C1301.79 483.05 1301.93 483.117 1302.03 483.25C1302.16 483.35 1302.23 483.483 1302.23 483.65V487.4C1302.23 487.767 1302.03 487.983 1301.63 488.05L1299.03 488.1C1296.39 488.1 1294.43 487.65 1293.13 486.75C1291.83 485.85 1291.16 484.15 1291.13 481.65V467.4C1291.13 467.233 1291.04 467.15 1290.88 467.15H1288.03C1287.86 467.15 1287.71 467.1 1287.58 467C1287.48 466.867 1287.43 466.717 1287.43 466.55V463.05C1287.43 462.883 1287.48 462.75 1287.58 462.65C1287.71 462.517 1287.86 462.45 1288.03 462.45H1290.88C1291.04 462.45 1291.13 462.367 1291.13 462.2V456.35C1291.13 456.183 1291.18 456.05 1291.28 455.95C1291.41 455.817 1291.56 455.75 1291.73 455.75H1296.08C1296.24 455.75 1296.38 455.817 1296.48 455.95C1296.61 456.05 1296.68 456.183 1296.68 456.35V462.2C1296.68 462.367 1296.76 462.45 1296.93 462.45H1302.03C1302.19 462.45 1302.33 462.517 1302.43 462.65C1302.56 462.75 1302.63 462.883 1302.63 463.05V466.55ZM1317.53 462.05C1319.63 462.05 1321.48 462.417 1323.08 463.15C1324.68 463.883 1325.91 464.9 1326.78 466.2C1327.64 467.467 1328.08 468.917 1328.08 470.55V487.4C1328.08 487.567 1328.01 487.717 1327.88 487.85C1327.78 487.95 1327.64 488 1327.48 488H1322.88C1322.71 488 1322.56 487.95 1322.43 487.85C1322.33 487.717 1322.28 487.567 1322.28 487.4V485.8C1322.28 485.7 1322.24 485.65 1322.18 485.65C1322.11 485.617 1322.04 485.633 1321.98 485.7C1320.34 487.5 1317.98 488.4 1314.88 488.4C1312.38 488.4 1310.31 487.767 1308.68 486.5C1307.08 485.233 1306.28 483.35 1306.28 480.85C1306.28 478.25 1307.18 476.233 1308.98 474.8C1310.81 473.333 1313.38 472.6 1316.68 472.6H1322.03C1322.19 472.6 1322.28 472.517 1322.28 472.35V471.15C1322.28 469.85 1321.89 468.85 1321.13 468.15C1320.36 467.417 1319.21 467.05 1317.68 467.05C1316.41 467.05 1315.38 467.283 1314.58 467.75C1313.81 468.183 1313.33 468.8 1313.13 469.6C1313.03 470 1312.79 470.167 1312.43 470.1L1307.58 469.5C1307.41 469.467 1307.26 469.417 1307.13 469.35C1307.03 469.25 1306.99 469.133 1307.03 469C1307.29 466.967 1308.38 465.3 1310.28 464C1312.21 462.7 1314.63 462.05 1317.53 462.05ZM1316.33 483.8C1317.96 483.8 1319.36 483.367 1320.53 482.5C1321.69 481.633 1322.28 480.533 1322.28 479.2V476.85C1322.28 476.683 1322.19 476.6 1322.03 476.6H1317.83C1316.06 476.6 1314.66 476.933 1313.63 477.6C1312.63 478.267 1312.13 479.217 1312.13 480.45C1312.13 481.517 1312.51 482.35 1313.28 482.95C1314.08 483.517 1315.09 483.8 1316.33 483.8ZM1343.4 488.3C1341.3 488.3 1339.45 488 1337.85 487.4C1336.28 486.767 1335.07 485.917 1334.2 484.85C1333.33 483.75 1332.9 482.533 1332.9 481.2V480.75C1332.9 480.583 1332.95 480.45 1333.05 480.35C1333.18 480.217 1333.33 480.15 1333.5 480.15H1337.9C1338.07 480.15 1338.2 480.217 1338.3 480.35C1338.43 480.45 1338.5 480.583 1338.5 480.75V480.85C1338.5 481.683 1338.95 482.417 1339.85 483.05C1340.78 483.65 1341.95 483.95 1343.35 483.95C1344.68 483.95 1345.77 483.683 1346.6 483.15C1347.43 482.583 1347.85 481.883 1347.85 481.05C1347.85 480.283 1347.5 479.717 1346.8 479.35C1346.13 478.95 1345.03 478.533 1343.5 478.1L1341.6 477.5C1339.9 477 1338.47 476.467 1337.3 475.9C1336.13 475.333 1335.15 474.567 1334.35 473.6C1333.55 472.6 1333.15 471.333 1333.15 469.8C1333.15 467.467 1334.07 465.617 1335.9 464.25C1337.73 462.85 1340.15 462.15 1343.15 462.15C1345.18 462.15 1346.97 462.483 1348.5 463.15C1350.03 463.783 1351.22 464.683 1352.05 465.85C1352.88 466.983 1353.3 468.283 1353.3 469.75C1353.3 469.917 1353.23 470.067 1353.1 470.2C1353 470.3 1352.87 470.35 1352.7 470.35H1348.45C1348.28 470.35 1348.13 470.3 1348 470.2C1347.9 470.067 1347.85 469.917 1347.85 469.75C1347.85 468.883 1347.42 468.167 1346.55 467.6C1345.72 467 1344.57 466.7 1343.1 466.7C1341.8 466.7 1340.73 466.95 1339.9 467.45C1339.1 467.917 1338.7 468.583 1338.7 469.45C1338.7 470.25 1339.08 470.867 1339.85 471.3C1340.65 471.7 1341.97 472.15 1343.8 472.65L1344.9 472.95C1346.67 473.483 1348.15 474.033 1349.35 474.6C1350.55 475.133 1351.57 475.9 1352.4 476.9C1353.23 477.867 1353.65 479.133 1353.65 480.7C1353.65 483.067 1352.72 484.933 1350.85 486.3C1348.98 487.633 1346.5 488.3 1343.4 488.3ZM1369.72 488C1369.55 488 1369.4 487.95 1369.27 487.85C1369.17 487.717 1369.12 487.567 1369.12 487.4V453.6C1369.12 453.433 1369.17 453.3 1369.27 453.2C1369.4 453.067 1369.55 453 1369.72 453H1374.32C1374.49 453 1374.62 453.067 1374.72 453.2C1374.85 453.3 1374.92 453.433 1374.92 453.6V482.75C1374.92 482.917 1375 483 1375.17 483H1391.92C1392.09 483 1392.22 483.067 1392.32 483.2C1392.45 483.3 1392.52 483.433 1392.52 483.6V487.4C1392.52 487.567 1392.45 487.717 1392.32 487.85C1392.22 487.95 1392.09 488 1391.92 488H1369.72ZM1400.43 458.95C1399.4 458.95 1398.55 458.617 1397.88 457.95C1397.22 457.283 1396.88 456.433 1396.88 455.4C1396.88 454.367 1397.22 453.517 1397.88 452.85C1398.55 452.183 1399.4 451.85 1400.43 451.85C1401.47 451.85 1402.32 452.183 1402.98 452.85C1403.65 453.517 1403.98 454.367 1403.98 455.4C1403.98 456.433 1403.65 457.283 1402.98 457.95C1402.32 458.617 1401.47 458.95 1400.43 458.95ZM1398.03 488C1397.87 488 1397.72 487.95 1397.58 487.85C1397.48 487.717 1397.43 487.567 1397.43 487.4V463C1397.43 462.833 1397.48 462.7 1397.58 462.6C1397.72 462.467 1397.87 462.4 1398.03 462.4H1402.63C1402.8 462.4 1402.93 462.467 1403.03 462.6C1403.17 462.7 1403.23 462.833 1403.23 463V487.4C1403.23 487.567 1403.17 487.717 1403.03 487.85C1402.93 487.95 1402.8 488 1402.63 488H1398.03ZM1422.13 462.05C1424.83 462.05 1426.98 462.85 1428.58 464.45C1430.21 466.05 1431.03 468.233 1431.03 471V487.4C1431.03 487.567 1430.96 487.717 1430.83 487.85C1430.73 487.95 1430.59 488 1430.43 488H1425.83C1425.66 488 1425.51 487.95 1425.38 487.85C1425.28 487.717 1425.23 487.567 1425.23 487.4V472.2C1425.23 470.667 1424.79 469.433 1423.93 468.5C1423.06 467.533 1421.91 467.05 1420.48 467.05C1419.04 467.05 1417.88 467.517 1416.98 468.45C1416.11 469.383 1415.68 470.617 1415.68 472.15V487.4C1415.68 487.567 1415.61 487.717 1415.48 487.85C1415.38 487.95 1415.24 488 1415.08 488H1410.48C1410.31 488 1410.16 487.95 1410.03 487.85C1409.93 487.717 1409.88 487.567 1409.88 487.4V463.05C1409.88 462.883 1409.93 462.75 1410.03 462.65C1410.16 462.517 1410.31 462.45 1410.48 462.45H1415.08C1415.24 462.45 1415.38 462.517 1415.48 462.65C1415.61 462.75 1415.68 462.883 1415.68 463.05V464.65C1415.68 464.75 1415.71 464.817 1415.78 464.85C1415.84 464.883 1415.89 464.85 1415.93 464.75C1417.29 462.95 1419.36 462.05 1422.13 462.05ZM1452.72 463.05C1452.72 462.883 1452.77 462.75 1452.87 462.65C1453.01 462.517 1453.16 462.45 1453.32 462.45H1457.92C1458.09 462.45 1458.22 462.517 1458.32 462.65C1458.46 462.75 1458.52 462.883 1458.52 463.05V486.3C1458.52 490.467 1457.32 493.433 1454.92 495.2C1452.56 497 1449.44 497.9 1445.57 497.9C1444.54 497.9 1443.52 497.85 1442.52 497.75C1442.16 497.717 1441.97 497.5 1441.97 497.1L1442.12 493C1442.12 492.633 1442.36 492.45 1442.82 492.45C1443.79 492.55 1444.66 492.6 1445.42 492.6C1447.92 492.6 1449.76 492.1 1450.92 491.1C1452.12 490.133 1452.72 488.483 1452.72 486.15V485.75C1452.72 485.65 1452.69 485.6 1452.62 485.6C1452.56 485.567 1452.49 485.583 1452.42 485.65C1451.06 487.117 1449.12 487.85 1446.62 487.85C1444.46 487.85 1442.47 487.3 1440.67 486.2C1438.87 485.1 1437.62 483.417 1436.92 481.15C1436.49 479.583 1436.27 477.567 1436.27 475.1C1436.27 472.333 1436.54 470.217 1437.07 468.75C1437.74 466.717 1438.89 465.1 1440.52 463.9C1442.16 462.667 1444.07 462.05 1446.27 462.05C1448.91 462.05 1450.96 462.817 1452.42 464.35C1452.49 464.45 1452.56 464.483 1452.62 464.45C1452.69 464.417 1452.72 464.35 1452.72 464.25V463.05ZM1452.37 479.5C1452.51 479 1452.59 478.467 1452.62 477.9C1452.69 477.3 1452.72 476.35 1452.72 475.05C1452.72 473.783 1452.69 472.883 1452.62 472.35C1452.59 471.783 1452.49 471.233 1452.32 470.7C1452.06 469.6 1451.51 468.717 1450.67 468.05C1449.87 467.383 1448.84 467.05 1447.57 467.05C1446.37 467.05 1445.36 467.383 1444.52 468.05C1443.69 468.717 1443.09 469.6 1442.72 470.7C1442.32 471.633 1442.12 473.1 1442.12 475.1C1442.12 477.167 1442.29 478.617 1442.62 479.45C1442.96 480.517 1443.56 481.4 1444.42 482.1C1445.32 482.767 1446.39 483.1 1447.62 483.1C1448.92 483.1 1449.97 482.767 1450.77 482.1C1451.57 481.433 1452.11 480.567 1452.37 479.5ZM1465.12 488C1464.95 488 1464.8 487.95 1464.67 487.85C1464.57 487.717 1464.52 487.567 1464.52 487.4V453.6C1464.52 453.433 1464.57 453.3 1464.67 453.2C1464.8 453.067 1464.95 453 1465.12 453H1469.72C1469.88 453 1470.02 453.067 1470.12 453.2C1470.25 453.3 1470.32 453.433 1470.32 453.6V471.65C1470.32 471.75 1470.35 471.817 1470.42 471.85C1470.48 471.883 1470.55 471.85 1470.62 471.75L1478.72 462.8C1478.95 462.567 1479.2 462.45 1479.47 462.45H1484.77C1485.1 462.45 1485.27 462.567 1485.27 462.8C1485.27 462.9 1485.22 463.033 1485.12 463.2L1478.77 470.8C1478.67 470.9 1478.65 471.017 1478.72 471.15L1486.22 487.3C1486.28 487.433 1486.32 487.533 1486.32 487.6C1486.32 487.867 1486.13 488 1485.77 488H1480.92C1480.58 488 1480.35 487.85 1480.22 487.55L1474.77 474.85C1474.73 474.783 1474.67 474.75 1474.57 474.75C1474.5 474.717 1474.45 474.733 1474.42 474.8L1470.42 479.4C1470.35 479.533 1470.32 479.65 1470.32 479.75V487.4C1470.32 487.567 1470.25 487.717 1470.12 487.85C1470.02 487.95 1469.88 488 1469.72 488H1465.12ZM1505.74 463.05C1505.74 462.883 1505.79 462.75 1505.89 462.65C1506.02 462.517 1506.17 462.45 1506.34 462.45H1510.89C1511.06 462.45 1511.19 462.517 1511.29 462.65C1511.42 462.75 1511.49 462.883 1511.49 463.05V487.4C1511.49 487.567 1511.42 487.717 1511.29 487.85C1511.19 487.95 1511.06 488 1510.89 488H1506.34C1506.17 488 1506.02 487.95 1505.89 487.85C1505.79 487.717 1505.74 487.567 1505.74 487.4V485.8C1505.74 485.7 1505.71 485.633 1505.64 485.6C1505.57 485.567 1505.51 485.6 1505.44 485.7C1504.07 487.467 1502.02 488.35 1499.29 488.35C1496.76 488.35 1494.62 487.617 1492.89 486.15C1491.19 484.683 1490.34 482.6 1490.34 479.9V463.05C1490.34 462.883 1490.39 462.75 1490.49 462.65C1490.62 462.517 1490.77 462.45 1490.94 462.45H1495.54C1495.71 462.45 1495.84 462.517 1495.94 462.65C1496.07 462.75 1496.14 462.883 1496.14 463.05V478.25C1496.14 479.817 1496.54 481.067 1497.34 482C1498.17 482.933 1499.32 483.4 1500.79 483.4C1502.29 483.4 1503.49 482.933 1504.39 482C1505.29 481.067 1505.74 479.817 1505.74 478.25V463.05ZM1529.94 462.05C1532.64 462.05 1534.79 462.85 1536.39 464.45C1538.02 466.05 1538.84 468.233 1538.84 471V487.4C1538.84 487.567 1538.77 487.717 1538.64 487.85C1538.54 487.95 1538.41 488 1538.24 488H1533.64C1533.47 488 1533.32 487.95 1533.19 487.85C1533.09 487.717 1533.04 487.567 1533.04 487.4V472.2C1533.04 470.667 1532.61 469.433 1531.74 468.5C1530.87 467.533 1529.72 467.05 1528.29 467.05C1526.86 467.05 1525.69 467.517 1524.79 468.45C1523.92 469.383 1523.49 470.617 1523.49 472.15V487.4C1523.49 487.567 1523.42 487.717 1523.29 487.85C1523.19 487.95 1523.06 488 1522.89 488H1518.29C1518.12 488 1517.97 487.95 1517.84 487.85C1517.74 487.717 1517.69 487.567 1517.69 487.4V463.05C1517.69 462.883 1517.74 462.75 1517.84 462.65C1517.97 462.517 1518.12 462.45 1518.29 462.45H1522.89C1523.06 462.45 1523.19 462.517 1523.29 462.65C1523.42 462.75 1523.49 462.883 1523.49 463.05V464.65C1523.49 464.75 1523.52 464.817 1523.59 464.85C1523.66 464.883 1523.71 464.85 1523.74 464.75C1525.11 462.95 1527.17 462.05 1529.94 462.05ZM1560.54 463.05C1560.54 462.883 1560.59 462.75 1560.69 462.65C1560.82 462.517 1560.97 462.45 1561.14 462.45H1565.74C1565.9 462.45 1566.04 462.517 1566.14 462.65C1566.27 462.75 1566.34 462.883 1566.34 463.05V486.3C1566.34 490.467 1565.14 493.433 1562.74 495.2C1560.37 497 1557.25 497.9 1553.39 497.9C1552.35 497.9 1551.34 497.85 1550.34 497.75C1549.97 497.717 1549.79 497.5 1549.79 497.1L1549.94 493C1549.94 492.633 1550.17 492.45 1550.64 492.45C1551.6 492.55 1552.47 492.6 1553.24 492.6C1555.74 492.6 1557.57 492.1 1558.74 491.1C1559.94 490.133 1560.54 488.483 1560.54 486.15V485.75C1560.54 485.65 1560.5 485.6 1560.44 485.6C1560.37 485.567 1560.3 485.583 1560.24 485.65C1558.87 487.117 1556.94 487.85 1554.44 487.85C1552.27 487.85 1550.29 487.3 1548.49 486.2C1546.69 485.1 1545.44 483.417 1544.74 481.15C1544.3 479.583 1544.09 477.567 1544.09 475.1C1544.09 472.333 1544.35 470.217 1544.89 468.75C1545.55 466.717 1546.7 465.1 1548.34 463.9C1549.97 462.667 1551.89 462.05 1554.09 462.05C1556.72 462.05 1558.77 462.817 1560.24 464.35C1560.3 464.45 1560.37 464.483 1560.44 464.45C1560.5 464.417 1560.54 464.35 1560.54 464.25V463.05ZM1560.19 479.5C1560.32 479 1560.4 478.467 1560.44 477.9C1560.5 477.3 1560.54 476.35 1560.54 475.05C1560.54 473.783 1560.5 472.883 1560.44 472.35C1560.4 471.783 1560.3 471.233 1560.14 470.7C1559.87 469.6 1559.32 468.717 1558.49 468.05C1557.69 467.383 1556.65 467.05 1555.39 467.05C1554.19 467.05 1553.17 467.383 1552.34 468.05C1551.5 468.717 1550.9 469.6 1550.54 470.7C1550.14 471.633 1549.94 473.1 1549.94 475.1C1549.94 477.167 1550.1 478.617 1550.44 479.45C1550.77 480.517 1551.37 481.4 1552.24 482.1C1553.14 482.767 1554.2 483.1 1555.44 483.1C1556.74 483.1 1557.79 482.767 1558.59 482.1C1559.39 481.433 1559.92 480.567 1560.19 479.5ZM1582.08 462.05C1584.18 462.05 1586.03 462.417 1587.63 463.15C1589.23 463.883 1590.46 464.9 1591.33 466.2C1592.2 467.467 1592.63 468.917 1592.63 470.55V487.4C1592.63 487.567 1592.56 487.717 1592.43 487.85C1592.33 487.95 1592.2 488 1592.03 488H1587.43C1587.26 488 1587.11 487.95 1586.98 487.85C1586.88 487.717 1586.83 487.567 1586.83 487.4V485.8C1586.83 485.7 1586.8 485.65 1586.73 485.65C1586.66 485.617 1586.6 485.633 1586.53 485.7C1584.9 487.5 1582.53 488.4 1579.43 488.4C1576.93 488.4 1574.86 487.767 1573.23 486.5C1571.63 485.233 1570.83 483.35 1570.83 480.85C1570.83 478.25 1571.73 476.233 1573.53 474.8C1575.36 473.333 1577.93 472.6 1581.23 472.6H1586.58C1586.75 472.6 1586.83 472.517 1586.83 472.35V471.15C1586.83 469.85 1586.45 468.85 1585.68 468.15C1584.91 467.417 1583.76 467.05 1582.23 467.05C1580.96 467.05 1579.93 467.283 1579.13 467.75C1578.36 468.183 1577.88 468.8 1577.68 469.6C1577.58 470 1577.35 470.167 1576.98 470.1L1572.13 469.5C1571.96 469.467 1571.81 469.417 1571.68 469.35C1571.58 469.25 1571.55 469.133 1571.58 469C1571.85 466.967 1572.93 465.3 1574.83 464C1576.76 462.7 1579.18 462.05 1582.08 462.05ZM1580.88 483.8C1582.51 483.8 1583.91 483.367 1585.08 482.5C1586.25 481.633 1586.83 480.533 1586.83 479.2V476.85C1586.83 476.683 1586.75 476.6 1586.58 476.6H1582.38C1580.61 476.6 1579.21 476.933 1578.18 477.6C1577.18 478.267 1576.68 479.217 1576.68 480.45C1576.68 481.517 1577.06 482.35 1577.83 482.95C1578.63 483.517 1579.65 483.8 1580.88 483.8ZM1610.7 462.05C1613.4 462.05 1615.55 462.85 1617.15 464.45C1618.78 466.05 1619.6 468.233 1619.6 471V487.4C1619.6 487.567 1619.53 487.717 1619.4 487.85C1619.3 487.95 1619.17 488 1619 488H1614.4C1614.23 488 1614.08 487.95 1613.95 487.85C1613.85 487.717 1613.8 487.567 1613.8 487.4V472.2C1613.8 470.667 1613.37 469.433 1612.5 468.5C1611.63 467.533 1610.48 467.05 1609.05 467.05C1607.62 467.05 1606.45 467.517 1605.55 468.45C1604.68 469.383 1604.25 470.617 1604.25 472.15V487.4C1604.25 487.567 1604.18 487.717 1604.05 487.85C1603.95 487.95 1603.82 488 1603.65 488H1599.05C1598.88 488 1598.73 487.95 1598.6 487.85C1598.5 487.717 1598.45 487.567 1598.45 487.4V463.05C1598.45 462.883 1598.5 462.75 1598.6 462.65C1598.73 462.517 1598.88 462.45 1599.05 462.45H1603.65C1603.82 462.45 1603.95 462.517 1604.05 462.65C1604.18 462.75 1604.25 462.883 1604.25 463.05V464.65C1604.25 464.75 1604.28 464.817 1604.35 464.85C1604.42 464.883 1604.47 464.85 1604.5 464.75C1605.87 462.95 1607.93 462.05 1610.7 462.05ZM1647.51 488.4C1644.91 488.4 1642.64 487.983 1640.71 487.15C1638.78 486.317 1637.28 485.15 1636.21 483.65C1635.18 482.15 1634.66 480.383 1634.66 478.35V477.1C1634.66 476.933 1634.71 476.8 1634.81 476.7C1634.94 476.567 1635.09 476.5 1635.26 476.5H1639.71C1639.88 476.5 1640.01 476.567 1640.11 476.7C1640.24 476.8 1640.31 476.933 1640.31 477.1V478.05C1640.31 479.583 1640.99 480.867 1642.36 481.9C1643.73 482.9 1645.59 483.4 1647.96 483.4C1649.99 483.4 1651.53 482.967 1652.56 482.1C1653.59 481.233 1654.11 480.117 1654.11 478.75C1654.11 477.817 1653.83 477.033 1653.26 476.4C1652.69 475.733 1651.88 475.133 1650.81 474.6C1649.78 474.067 1648.21 473.4 1646.11 472.6C1643.74 471.733 1641.83 470.917 1640.36 470.15C1638.89 469.383 1637.66 468.35 1636.66 467.05C1635.69 465.717 1635.21 464.067 1635.21 462.1C1635.21 459.167 1636.28 456.85 1638.41 455.15C1640.54 453.45 1643.39 452.6 1646.96 452.6C1649.46 452.6 1651.66 453.033 1653.56 453.9C1655.49 454.767 1656.99 455.983 1658.06 457.55C1659.13 459.083 1659.66 460.867 1659.66 462.9V463.75C1659.66 463.917 1659.59 464.067 1659.46 464.2C1659.36 464.3 1659.23 464.35 1659.06 464.35H1654.56C1654.39 464.35 1654.24 464.3 1654.11 464.2C1654.01 464.067 1653.96 463.917 1653.96 463.75V463.2C1653.96 461.633 1653.31 460.317 1652.01 459.25C1650.74 458.15 1648.98 457.6 1646.71 457.6C1644.88 457.6 1643.44 457.983 1642.41 458.75C1641.41 459.517 1640.91 460.6 1640.91 462C1640.91 463 1641.18 463.817 1641.71 464.45C1642.24 465.083 1643.04 465.667 1644.11 466.2C1645.18 466.7 1646.83 467.35 1649.06 468.15C1651.43 469.05 1653.31 469.867 1654.71 470.6C1656.14 471.333 1657.36 472.367 1658.36 473.7C1659.39 475 1659.91 476.633 1659.91 478.6C1659.91 481.6 1658.79 483.983 1656.56 485.75C1654.36 487.517 1651.34 488.4 1647.51 488.4ZM1686.75 472.35C1686.88 473.183 1686.95 474.117 1686.95 475.15L1686.9 476.7C1686.9 477.1 1686.7 477.3 1686.3 477.3H1670.65C1670.48 477.3 1670.4 477.383 1670.4 477.55C1670.5 478.65 1670.65 479.4 1670.85 479.8C1671.65 482.2 1673.6 483.417 1676.7 483.45C1678.97 483.45 1680.77 482.517 1682.1 480.65C1682.23 480.45 1682.4 480.35 1682.6 480.35C1682.73 480.35 1682.85 480.4 1682.95 480.5L1686.05 483.05C1686.35 483.283 1686.4 483.55 1686.2 483.85C1685.17 485.317 1683.78 486.45 1682.05 487.25C1680.35 488.05 1678.45 488.45 1676.35 488.45C1673.75 488.45 1671.53 487.867 1669.7 486.7C1667.9 485.533 1666.58 483.9 1665.75 481.8C1664.98 480 1664.6 477.5 1664.6 474.3C1664.6 472.367 1664.8 470.8 1665.2 469.6C1665.87 467.267 1667.12 465.433 1668.95 464.1C1670.82 462.733 1673.05 462.05 1675.65 462.05C1682.22 462.05 1685.92 465.483 1686.75 472.35ZM1675.65 467.05C1674.42 467.05 1673.38 467.367 1672.55 468C1671.75 468.6 1671.18 469.45 1670.85 470.55C1670.65 471.117 1670.52 471.85 1670.45 472.75C1670.38 472.917 1670.45 473 1670.65 473H1680.8C1680.97 473 1681.05 472.917 1681.05 472.75C1680.98 471.917 1680.88 471.283 1680.75 470.85C1680.45 469.65 1679.85 468.717 1678.95 468.05C1678.08 467.383 1676.98 467.05 1675.65 467.05ZM1704.5 462.05C1707.2 462.05 1709.35 462.85 1710.95 464.45C1712.58 466.05 1713.4 468.233 1713.4 471V487.4C1713.4 487.567 1713.33 487.717 1713.2 487.85C1713.1 487.95 1712.97 488 1712.8 488H1708.2C1708.03 488 1707.88 487.95 1707.75 487.85C1707.65 487.717 1707.6 487.567 1707.6 487.4V472.2C1707.6 470.667 1707.17 469.433 1706.3 468.5C1705.43 467.533 1704.28 467.05 1702.85 467.05C1701.42 467.05 1700.25 467.517 1699.35 468.45C1698.48 469.383 1698.05 470.617 1698.05 472.15V487.4C1698.05 487.567 1697.98 487.717 1697.85 487.85C1697.75 487.95 1697.62 488 1697.45 488H1692.85C1692.68 488 1692.53 487.95 1692.4 487.85C1692.3 487.717 1692.25 487.567 1692.25 487.4V453.6C1692.25 453.433 1692.3 453.3 1692.4 453.2C1692.53 453.067 1692.68 453 1692.85 453H1697.45C1697.62 453 1697.75 453.067 1697.85 453.2C1697.98 453.3 1698.05 453.433 1698.05 453.6V464.65C1698.05 464.75 1698.08 464.817 1698.15 464.85C1698.22 464.883 1698.27 464.85 1698.3 464.75C1699.67 462.95 1701.73 462.05 1704.5 462.05ZM1729.2 462.05C1731.3 462.05 1733.15 462.417 1734.75 463.15C1736.35 463.883 1737.58 464.9 1738.45 466.2C1739.31 467.467 1739.75 468.917 1739.75 470.55V487.4C1739.75 487.567 1739.68 487.717 1739.55 487.85C1739.45 487.95 1739.31 488 1739.15 488H1734.55C1734.38 488 1734.23 487.95 1734.1 487.85C1734 487.717 1733.95 487.567 1733.95 487.4V485.8C1733.95 485.7 1733.91 485.65 1733.85 485.65C1733.78 485.617 1733.71 485.633 1733.65 485.7C1732.01 487.5 1729.65 488.4 1726.55 488.4C1724.05 488.4 1721.98 487.767 1720.35 486.5C1718.75 485.233 1717.95 483.35 1717.95 480.85C1717.95 478.25 1718.85 476.233 1720.65 474.8C1722.48 473.333 1725.05 472.6 1728.35 472.6H1733.7C1733.86 472.6 1733.95 472.517 1733.95 472.35V471.15C1733.95 469.85 1733.56 468.85 1732.8 468.15C1732.03 467.417 1730.88 467.05 1729.35 467.05C1728.08 467.05 1727.05 467.283 1726.25 467.75C1725.48 468.183 1725 468.8 1724.8 469.6C1724.7 470 1724.46 470.167 1724.1 470.1L1719.25 469.5C1719.08 469.467 1718.93 469.417 1718.8 469.35C1718.7 469.25 1718.66 469.133 1718.7 469C1718.96 466.967 1720.05 465.3 1721.95 464C1723.88 462.7 1726.3 462.05 1729.2 462.05ZM1728 483.8C1729.63 483.8 1731.03 483.367 1732.2 482.5C1733.36 481.633 1733.95 480.533 1733.95 479.2V476.85C1733.95 476.683 1733.86 476.6 1733.7 476.6H1729.5C1727.73 476.6 1726.33 476.933 1725.3 477.6C1724.3 478.267 1723.8 479.217 1723.8 480.45C1723.8 481.517 1724.18 482.35 1724.95 482.95C1725.75 483.517 1726.76 483.8 1728 483.8ZM1758.73 466.55C1758.73 466.717 1758.66 466.867 1758.53 467C1758.43 467.1 1758.3 467.15 1758.13 467.15H1753.03C1752.86 467.15 1752.78 467.233 1752.78 467.4V479.45C1752.78 480.717 1753.05 481.633 1753.58 482.2C1754.15 482.767 1755.03 483.05 1756.23 483.05H1757.73C1757.9 483.05 1758.03 483.117 1758.13 483.25C1758.26 483.35 1758.33 483.483 1758.33 483.65V487.4C1758.33 487.767 1758.13 487.983 1757.73 488.05L1755.13 488.1C1752.5 488.1 1750.53 487.65 1749.23 486.75C1747.93 485.85 1747.26 484.15 1747.23 481.65V467.4C1747.23 467.233 1747.15 467.15 1746.98 467.15H1744.13C1743.96 467.15 1743.81 467.1 1743.68 467C1743.58 466.867 1743.53 466.717 1743.53 466.55V463.05C1743.53 462.883 1743.58 462.75 1743.68 462.65C1743.81 462.517 1743.96 462.45 1744.13 462.45H1746.98C1747.15 462.45 1747.23 462.367 1747.23 462.2V456.35C1747.23 456.183 1747.28 456.05 1747.38 455.95C1747.51 455.817 1747.66 455.75 1747.83 455.75H1752.18C1752.35 455.75 1752.48 455.817 1752.58 455.95C1752.71 456.05 1752.78 456.183 1752.78 456.35V462.2C1752.78 462.367 1752.86 462.45 1753.03 462.45H1758.13C1758.3 462.45 1758.43 462.517 1758.53 462.65C1758.66 462.75 1758.73 462.883 1758.73 463.05V466.55Z" fill="white"/>
<defs>
<clipPath id="clip0_1018_2454">
<rect width="68.3008" height="105" fill="white" transform="translate(542 488.622) rotate(-66.6346)"/>
</clipPath>
</defs>
</svg>
